<?xml version="1.0" encoding="UTF-8"?>
<!--Generator: Apple Native CoreSVG 341-->
<!DOCTYPE svg
PUBLIC "-//W3C//DTD SVG 1.1//EN"
       "http://www.w3.org/Graphics/SVG/1.1/DTD/svg11.dtd">
<svg version="1.1" xmlns="http://www.w3.org/2000/svg" xmlns:xlink="http://www.w3.org/1999/xlink" viewBox="0 0 772.095 772.461">
 <g>
  <rect height="772.461" opacity="0" width="772.095" x="0" y="0"/>
  <path d="M358.887 622.7L358.887 691.852C211.432 678.938 93.7674 561.249 80.7417 413.818L149.918 413.818C162.432 523.345 249.343 610.275 358.887 622.7ZM413.696 691.847L413.696 622.685C523.285 610.222 610.154 523.312 622.665 413.818L691.841 413.818C678.818 561.215 561.199 678.884 413.696 691.847ZM691.866 359.131L622.739 359.131C610.415 249.425 523.45 162.364 413.696 149.896L413.696 80.6138C561.36 93.5913 679.075 211.503 691.866 359.131ZM358.887 149.881C249.179 162.312 162.172 249.392 149.844 359.131L80.717 359.131C93.5101 211.469 211.271 93.5368 358.887 80.6085Z" fill="white" fill-opacity="0.85"/>
  <path d="M386.23 264.648C401.611 264.648 413.696 252.319 413.696 237.061L413.696 27.9541C413.696 12.5732 401.611 0.488281 386.23 0.488281C370.85 0.488281 358.887 12.5732 358.887 27.9541L358.887 237.061C358.887 252.319 370.85 264.648 386.23 264.648ZM27.5879 413.818L236.694 413.818C252.075 413.818 264.282 401.855 264.282 386.475C264.282 370.972 252.075 359.131 236.694 359.131L27.5879 359.131C12.3291 359.131 0 370.972 0 386.475C0 401.855 12.3291 413.818 27.5879 413.818ZM386.23 772.461C401.611 772.461 413.696 760.254 413.696 744.873L413.696 535.767C413.696 520.386 401.611 508.301 386.23 508.301C370.85 508.301 358.887 520.386 358.887 535.767L358.887 744.873C358.887 760.254 370.85 772.461 386.23 772.461ZM535.4 413.818L744.507 413.818C759.888 413.818 772.095 401.855 772.095 386.475C772.095 370.972 759.888 359.131 744.507 359.131L535.4 359.131C520.142 359.131 507.812 370.972 507.812 386.475C507.812 401.855 520.142 413.818 535.4 413.818Z" fill="white" fill-opacity="0.85"/>
  <path d="M386.108 442.261C416.87 442.261 441.772 417.236 441.772 386.353C441.772 355.713 416.87 330.688 386.108 330.688C355.225 330.688 330.322 355.713 330.322 386.353C330.322 417.236 355.225 442.261 386.108 442.261Z" fill="white" fill-opacity="0.85"/>
 </g>
</svg>
